<svg width="33" height="34" viewBox="0 0 33 34" fill="none" xmlns="http://www.w3.org/2000/svg">
<path d="M16.3333 0.75C13.1194 0.75 9.9776 1.70305 7.3053 3.48862C4.633 5.27419 2.55019 7.81209 1.32027 10.7814C0.0903462 13.7507 -0.231458 17.018 0.395552 20.1702C1.02256 23.3224 2.57022 26.2179 4.84283 28.4905C7.11543 30.7631 10.0109 32.3107 13.1631 32.9378C16.3153 33.5648 19.5826 33.243 22.5519 32.013C25.5212 30.7831 28.0591 28.7003 29.8447 26.028C31.6303 23.3557 32.5833 20.2139 32.5833 17C32.5788 12.6916 30.8653 8.56102 27.8188 5.51454C24.7723 2.46806 20.6417 0.75455 16.3333 0.75ZM16.3333 30.75C13.6138 30.75 10.9554 29.9436 8.69422 28.4327C6.43305 26.9218 4.67067 24.7744 3.62997 22.2619C2.58926 19.7494 2.31697 16.9847 2.84751 14.3175C3.37806 11.6503 4.68762 9.20025 6.61059 7.27728C8.53357 5.35431 10.9836 4.04475 13.6508 3.5142C16.3181 2.98366 19.0827 3.25595 21.5952 4.29666C24.1077 5.33736 26.2551 7.09973 27.766 9.36091C29.2769 11.6221 30.0833 14.2805 30.0833 17C30.0792 20.6455 28.6292 24.1404 26.0515 26.7182C23.4737 29.2959 19.9788 30.7459 16.3333 30.75ZM26.3333 17C26.3333 17.3315 26.2016 17.6495 25.9672 17.8839C25.7328 18.1183 25.4148 18.25 25.0833 18.25H16.3333C16.0018 18.25 15.6838 18.1183 15.4494 17.8839C15.215 17.6495 15.0833 17.3315 15.0833 17V8.25C15.0833 7.91848 15.215 7.60054 15.4494 7.36612C15.6838 7.1317 16.0018 7 16.3333 7C16.6648 7 16.9828 7.1317 17.2172 7.36612C17.4516 7.60054 17.5833 7.91848 17.5833 8.25V15.75H25.0833C25.4148 15.75 25.7328 15.8817 25.9672 16.1161C26.2016 16.3505 26.3333 16.6685 26.3333 17Z" fill="white"/>
</svg>
