<svg width="26" height="26" viewBox="0 0 26 26" fill="none" xmlns="http://www.w3.org/2000/svg">
<g clip-path="url(#clip0_3762_2750)">
<path d="M13 25.1329C11.4066 25.1329 9.82886 24.819 8.35678 24.2093C6.88469 23.5995 5.54712 22.7058 4.42044 21.5791C3.29376 20.4524 2.40002 19.1149 1.79026 17.6428C1.18051 16.1707 0.866669 14.5929 0.866669 12.9995C0.866669 11.4062 1.18051 9.8284 1.79026 8.35632C2.40002 6.88424 3.29376 5.54667 4.42044 4.41998C5.54712 3.2933 6.88469 2.39956 8.35678 1.78981C9.82886 1.18005 11.4066 0.866211 13 0.866211C16.218 0.866211 19.3041 2.14454 21.5796 4.41998C23.855 6.69542 25.1333 9.78158 25.1333 12.9995C25.1333 16.2175 23.855 19.3037 21.5796 21.5791C19.3041 23.8545 16.218 25.1329 13 25.1329ZM13 25.1329V11.2662C13 10.3468 13.3652 9.46503 14.0154 8.81491C14.6655 8.16478 15.5473 7.79954 16.4667 7.79954H17.3333M8.66667 14.7329H17.3333" stroke="white" stroke-width="2"/>
</g>
<defs>
<clipPath id="clip0_3762_2750">
<rect width="26" height="26" fill="white"/>
</clipPath>
</defs>
</svg>
