<svg width="1947" height="490" viewBox="0 0 1947 490" fill="none" xmlns="http://www.w3.org/2000/svg">
<path d="M643.886 172.637H728.398V64.5774H692.786C685.345 64.5774 679.13 66.7441 674.142 71.0761C669.196 75.4094 665.802 81.44 664.002 89.1707L643.886 172.637ZM577.037 196.127V184.191C577.037 180.963 578.141 178.244 580.308 175.993C582.476 173.741 585.092 172.637 588.158 172.637H597.398L619.682 78.3827C627.369 45.8027 653.332 29.4921 697.57 29.4067H762.293C765.401 29.4067 768.058 30.512 770.226 32.7627C772.433 35.0134 773.538 37.7334 773.538 40.9614V196.381C773.538 199.609 772.433 202.328 770.266 204.495C768.058 206.703 765.401 207.808 762.293 207.808H588.281C585.174 207.808 582.516 206.66 580.308 204.409C578.141 202.116 577.037 199.355 577.037 196.127Z" fill="white"/>
<path d="M991.504 196.381V41.2161C991.504 37.9881 992.608 35.2267 994.816 32.8907C997.024 30.5547 999.681 29.4067 1002.75 29.4067H1025.28C1028.51 29.4067 1031.2 30.5547 1033.37 32.8907C1035.54 35.2267 1036.64 37.9881 1036.64 41.2161V196.127C1036.64 199.355 1035.5 202.116 1033.25 204.367C1031 206.66 1028.34 207.808 1025.28 207.808H1002.75C999.681 207.808 997.024 206.703 994.816 204.495C992.608 202.328 991.504 199.609 991.504 196.381ZM852.898 172.637H902.208C915.618 172.637 922.324 164.736 922.324 148.936C922.324 133.135 915.618 125.233 902.208 125.233H852.898V172.637ZM807.76 195.872V41.2161C807.76 37.8174 808.822 35.0134 810.989 32.7627C813.157 30.512 815.856 29.4067 819.126 29.4067H841.654C844.762 29.4067 847.42 30.5547 849.586 32.8907C851.794 35.2267 852.898 37.9881 852.898 41.2161V90.0627H902.208C921.056 90.0627 936.633 95.2454 948.981 105.652C961.289 116.059 967.462 130.5 967.462 148.977C967.462 167.497 961.289 181.897 948.9 192.261C936.552 202.625 920.974 207.808 902.208 207.808H818.554C815.569 207.808 813.034 206.619 810.949 204.281C808.822 201.903 807.76 199.1 807.76 195.872Z" fill="white"/>
<path d="M1071.39 196.127V41.2161C1071.39 37.9881 1072.5 35.2267 1074.75 32.8894C1077 30.5547 1079.65 29.4067 1082.76 29.4067H1105.29C1108.4 29.4067 1111.05 30.512 1113.22 32.7627C1115.43 35.0134 1116.53 37.7334 1116.53 40.9614V172.637H1169.03V40.9614C1169.03 37.7334 1170.14 35.0134 1172.38 32.7627C1174.63 30.512 1177.29 29.4067 1180.4 29.4067H1202.93C1206.03 29.4067 1208.69 30.5547 1210.86 32.8894C1213.07 35.2267 1214.17 37.9881 1214.17 41.2161V172.637H1266.67V40.9614C1266.67 37.7334 1267.77 35.0134 1269.98 32.7627C1272.19 30.512 1274.85 29.4067 1277.95 29.4067H1300.52C1303.63 29.4067 1306.29 30.5547 1308.5 32.8894C1310.7 35.2267 1311.81 37.9881 1311.81 41.2161V196.127C1311.81 199.355 1310.7 202.116 1308.5 204.367C1306.33 206.66 1303.67 207.808 1300.56 207.808H1082.76C1079.65 207.808 1077 206.66 1074.75 204.367C1072.5 202.116 1071.39 199.355 1071.39 196.127Z" fill="white"/>
<path d="M1346.07 196.127V41.2161C1346.07 37.8174 1347.17 35.0134 1349.43 32.7627C1351.63 30.512 1354.45 29.4067 1357.8 29.4067H1379.6C1382.79 29.4067 1385.52 30.512 1387.81 32.7627C1390.07 35.0134 1391.21 37.7334 1391.21 40.9614V165.501L1459.97 41.2161C1461.81 37.9881 1464.36 35.2267 1467.59 32.8894C1470.81 30.5547 1473.8 29.4067 1476.53 29.4067H1512.19C1515.33 29.4067 1518 30.5547 1520.16 32.8894C1522.33 35.2267 1523.44 37.9881 1523.44 41.2161V196.127C1523.44 199.355 1522.29 202.116 1519.96 204.367C1517.67 206.66 1514.89 207.808 1511.71 207.808H1489.91C1486.72 207.808 1483.97 206.66 1481.69 204.367C1479.44 202.116 1478.29 199.355 1478.29 196.127V80.6761L1415.21 196.127C1413.37 199.355 1410.75 202.116 1407.36 204.367C1403.96 206.66 1400.69 207.808 1397.55 207.808H1357.56C1354.41 207.808 1351.71 206.66 1349.47 204.367C1347.21 202.116 1346.07 199.355 1346.07 196.127Z" fill="white"/>
<path d="M1540.24 52.896V41.2161C1540.24 37.8174 1541.31 35.0134 1543.47 32.7627C1545.64 30.512 1548.33 29.4067 1551.6 29.4067H1703.55C1706.81 29.4067 1709.51 30.512 1711.68 32.7627C1713.84 35.0134 1714.91 37.8174 1714.91 41.2161V52.896C1714.91 56.2947 1713.84 59.0987 1711.68 61.264C1709.51 63.4734 1706.81 64.5774 1703.55 64.5774H1650.15V196.339C1650.15 199.609 1649.04 202.328 1646.83 204.495C1644.67 206.703 1642 207.808 1638.89 207.808H1616.25C1613.13 207.808 1610.48 206.703 1608.32 204.495C1606.11 202.328 1605 199.609 1605 196.339V64.5774H1551.6C1548.33 64.5774 1545.64 63.4734 1543.47 61.264C1541.31 59.0987 1540.24 56.2947 1540.24 52.896Z" fill="white"/>
<path d="M1734.53 195.872V40.9614C1734.53 37.7334 1735.64 35.0134 1737.88 32.7627C1740.13 30.512 1742.79 29.4067 1745.89 29.4067H1883.93C1887.08 29.4067 1889.73 30.5547 1891.91 32.8907C1894.11 35.2267 1895.21 37.9881 1895.21 41.2161V52.896C1895.21 56.1254 1894.11 58.8854 1891.91 61.1801C1889.73 63.4307 1887.08 64.5774 1883.93 64.5774H1779.67V100.767H1869.49C1872.6 100.767 1875.27 101.915 1877.43 104.208C1879.64 106.501 1880.75 109.263 1880.75 112.491V124.215C1880.75 127.443 1879.64 130.204 1877.43 132.497C1875.27 134.791 1872.6 135.937 1869.49 135.937H1779.67V172.637H1883.73C1886.84 172.637 1889.45 173.741 1891.53 175.993C1893.67 178.244 1894.72 180.963 1894.72 184.191V196.127C1894.72 199.355 1893.63 202.116 1891.37 204.409C1889.12 206.66 1886.47 207.808 1883.36 207.808H1745.89C1742.79 207.808 1740.13 206.66 1737.88 204.367C1735.64 202.116 1734.53 199.269 1734.53 195.872Z" fill="white"/>
<path d="M734.212 305.849L721.524 315.565C714.546 306.481 706.15 299.595 696.336 294.903C686.56 290.212 675.812 287.867 664.057 287.867C651.258 287.867 639.392 290.956 628.458 297.1C617.525 303.243 609.092 311.508 603.084 321.857C597.076 332.208 594.053 343.899 594.053 356.817C594.053 376.4 600.77 392.745 614.204 405.812C627.638 418.917 644.58 425.471 665.065 425.471C687.566 425.471 706.374 416.684 721.524 399.111L734.212 408.716C726.189 418.88 716.188 426.773 704.209 432.321C692.232 437.868 678.834 440.66 664.057 440.66C635.921 440.66 613.718 431.316 597.486 412.626C583.866 396.878 577.037 377.815 577.037 355.515C577.037 332.059 585.284 312.289 601.778 296.281C618.309 280.235 638.982 272.229 663.834 272.229C678.834 272.229 692.381 275.171 704.47 281.053C716.561 286.973 726.488 295.239 734.212 305.849Z" fill="white"/>
<path d="M782.572 359.349V421.003H802.536C814.29 421.003 822.909 419.848 828.394 417.577C833.881 415.269 838.284 411.657 841.605 406.78C844.926 401.904 846.605 396.616 846.605 390.957C846.605 383.809 844.254 377.555 839.59 372.231C834.925 366.944 828.508 363.296 820.334 361.323C814.849 360.019 805.297 359.349 791.677 359.349H782.572ZM782.572 291.888V343.265H791.788C802.984 343.265 811.229 342.223 816.492 340.175C821.753 338.091 825.932 334.815 828.992 330.347C832.089 325.879 833.62 320.889 833.62 315.455C833.62 308.12 831.044 302.349 825.894 298.143C820.708 293.972 812.498 291.888 801.229 291.888H782.572ZM766.898 276.251H798.58C811.342 276.251 821.156 277.74 827.985 280.756C834.85 283.771 840.261 288.425 844.217 294.68C848.209 300.897 850.188 307.859 850.188 315.455C850.188 322.603 848.433 329.08 844.964 334.925C841.493 340.771 836.381 345.499 829.664 349.148C838.022 351.977 844.441 355.291 848.918 359.125C853.434 362.923 856.904 367.54 859.404 372.975C861.905 378.373 863.173 384.256 863.173 390.585C863.173 403.467 858.472 414.376 849.03 423.273C839.59 432.172 826.94 436.638 811.044 436.638H766.898V276.251Z" fill="white"/>
<path d="M972.36 287.867C960.494 287.867 949.224 290.956 938.552 297.137C927.918 303.317 919.596 311.62 913.588 322.081C907.618 332.58 904.632 344.233 904.632 357.115C904.632 376.14 911.236 392.224 924.484 405.328C937.731 418.471 953.702 425.024 972.36 425.024C984.862 425.024 996.391 422.008 1006.99 415.976C1017.62 409.945 1025.91 401.68 1031.84 391.219C1037.78 380.756 1040.76 369.14 1040.76 356.333C1040.76 343.6 1037.78 332.096 1031.84 321.82C1025.91 311.545 1017.51 303.317 1006.73 297.137C995.944 290.956 984.487 287.867 972.36 287.867ZM971.651 272.229C995.98 272.229 1016.36 280.347 1032.74 296.541C1049.12 312.736 1057.33 332.692 1057.33 356.371C1057.33 379.862 1049.16 399.781 1032.81 416.126C1016.43 432.469 996.503 440.66 972.958 440.66C949.15 440.66 929.036 432.507 912.655 416.237C896.274 399.968 888.064 380.272 888.064 357.152C888.064 341.739 891.795 327.48 899.259 314.3C906.722 301.157 916.908 290.845 929.82 283.399C942.694 275.953 956.65 272.229 971.651 272.229Z" fill="white"/>
<path d="M1105.73 359.349V421.003H1125.39C1137.07 421.003 1145.62 419.848 1151.03 417.577C1156.48 415.269 1160.8 411.732 1164.01 406.967C1167.26 402.164 1168.86 396.84 1168.86 390.957C1168.86 383.512 1166.59 377.22 1162.04 372.044C1157.45 366.869 1151.77 363.444 1144.95 361.807C1138.15 360.168 1128.04 359.349 1114.64 359.349H1105.73ZM1089.61 436.638V276.251H1170.21V291.888H1105.73V343.265H1113.23C1133.19 343.265 1147.71 345.015 1156.74 348.552C1165.81 352.089 1172.89 357.636 1178.08 365.232C1183.27 372.826 1185.88 381.315 1185.88 390.623C1185.88 402.835 1181.29 413.556 1172.11 422.789C1162.93 432.023 1150.13 436.638 1133.75 436.638H1089.61Z" fill="white"/>
<path d="M1295.22 287.867C1283.35 287.867 1272.08 290.956 1261.41 297.137C1250.77 303.317 1242.45 311.62 1236.44 322.081C1230.47 332.58 1227.49 344.233 1227.49 357.115C1227.49 376.14 1234.09 392.224 1247.34 405.328C1260.59 418.471 1276.56 425.024 1295.22 425.024C1307.72 425.024 1319.25 422.008 1329.84 415.976C1340.48 409.945 1348.76 401.68 1354.69 391.219C1360.63 380.756 1363.61 369.14 1363.61 356.333C1363.61 343.6 1360.63 332.096 1354.69 321.82C1348.76 311.545 1340.37 303.317 1329.58 297.137C1318.8 290.956 1307.34 287.867 1295.22 287.867ZM1294.51 272.229C1318.84 272.229 1339.21 280.347 1355.59 296.541C1371.97 312.736 1380.19 332.692 1380.19 356.371C1380.19 379.862 1372.01 399.781 1355.67 416.126C1339.28 432.469 1319.36 440.66 1295.81 440.66C1272 440.66 1251.89 432.507 1235.51 416.237C1219.13 399.968 1210.92 380.272 1210.92 357.152C1210.92 341.739 1214.65 327.48 1222.11 314.3C1229.58 301.157 1239.76 290.845 1252.68 283.399C1265.55 275.953 1279.5 272.229 1294.51 272.229Z" fill="white"/>
<path d="M1427.35 421.673H1525.41L1475.15 309.759L1427.35 421.673ZM1412.47 460.541H1396.35V421.673H1409.21L1472.28 276.251H1477.84L1544.45 421.673H1556.88V460.541H1540.75V436.638H1412.47V460.541Z" fill="white"/>
<path d="M1579.71 276.251H1595.83V343.489H1677.77V276.251H1693.89V436.638H1677.77V359.125H1595.83V436.638H1579.71V276.251Z" fill="white"/>
<path d="M1810.25 287.867C1798.39 287.867 1787.11 290.956 1776.44 297.137C1765.8 303.317 1757.48 311.62 1751.48 322.081C1745.51 332.58 1742.52 344.233 1742.52 357.115C1742.52 376.14 1749.12 392.224 1762.37 405.328C1775.61 418.471 1791.59 425.024 1810.25 425.024C1822.75 425.024 1834.28 422.008 1844.88 415.976C1855.51 409.945 1863.8 401.68 1869.73 391.219C1875.67 380.756 1878.65 369.14 1878.65 356.333C1878.65 343.6 1875.67 332.096 1869.73 321.82C1863.8 311.545 1855.4 303.317 1844.61 297.137C1833.83 290.956 1822.37 287.867 1810.25 287.867ZM1809.53 272.229C1833.87 272.229 1854.24 280.347 1870.63 296.541C1887 312.736 1895.21 332.692 1895.21 356.371C1895.21 379.862 1887.04 399.781 1870.69 416.126C1854.32 432.469 1834.39 440.66 1810.84 440.66C1787.04 440.66 1766.92 432.507 1750.55 416.237C1734.16 399.968 1725.95 380.272 1725.95 357.152C1725.95 341.739 1729.68 327.48 1737.15 314.3C1744.61 301.157 1754.8 290.845 1767.71 283.399C1780.59 275.953 1794.53 272.229 1809.53 272.229Z" fill="white"/>
<path opacity="0.5" d="M350.983 176.027C416.956 154.648 333.72 8.96935 265.425 33.3987C200.276 56.7013 284.669 197.516 350.983 176.027Z" fill="#9AC22A"/>
<path opacity="0.5" d="M503.3 113.94C503.3 113.937 503.3 113.935 503.3 113.931C503.3 113.919 503.299 113.907 503.299 113.895C503.299 113.707 503.294 113.521 503.286 113.337C503.282 113.239 503.276 113.14 503.271 113.041C503.27 113.028 503.268 113.016 503.268 113.004C502.8 105.669 496.711 99.8587 489.255 99.848C485.651 99.844 482.362 101.197 479.87 103.423L462.418 117.368C462.132 117.595 461.846 117.824 461.558 118.056L461.5 118.101C436.83 137.908 403.73 171.139 364.606 190.268C323.21 210.508 241.426 161.763 171.474 109.62C131.883 78.8814 98.1186 49.1307 80.8492 33.7627C73.8164 27.504 63.0664 28.0387 56.6852 34.9613C49.2268 43.052 49.5727 55.6187 57.4795 63.272C76.73 81.9053 97.7082 101.083 119.096 120.671C158.864 157.484 205.187 205.065 235.687 243.461C293.616 316.388 275.271 357.045 259.786 380.992C253.832 390.199 247.459 400.104 241.868 408.809C232.204 423.856 238.339 443.961 254.742 451.087C305.97 473.343 364.659 455.957 401.352 403.889C444.923 342.063 411.022 297.585 412.842 257.859C414.495 221.764 491.146 134.015 499.302 123.843C499.486 123.612 499.66 123.384 499.83 123.157C501.878 120.812 503.16 117.783 503.286 114.455C503.294 114.281 503.299 114.109 503.3 113.94Z" fill="#9AC22A"/>
</svg>
