<svg width="220" height="75" viewBox="0 0 220 75" fill="none" xmlns="http://www.w3.org/2000/svg">
<path fill-rule="evenodd" clip-rule="evenodd" d="M26.5727 59.5308C28.5277 62.9199 39.4835 66.2652 45.8068 54.1379C50.5572 45.0275 43.1968 41.6977 48.0737 35.4697L56.4553 24.0444C56.7292 22.6387 56.069 21.8882 54.6378 22.2573C51.6692 23.0226 43.2162 35.6259 34.4927 31.8956C23.9075 27.3694 15.1449 19.9796 6.54254 12.6947C6.01011 12.2439 0.347623 6.73924 0.0239427 11.0918C-0.150215 13.4343 15.081 26.563 17.5792 29.1466C20.4523 32.1183 23.0449 34.3345 25.5755 37.1424C36.9942 49.8128 25.9849 55.4569 26.5727 59.5308Z" fill="#9AC22A"/>
<path fill-rule="evenodd" clip-rule="evenodd" d="M29.6391 14.371C22.281 17.014 31.8385 32.9127 39.3284 30.4745C46.78 28.0488 37.3525 11.6002 29.6391 14.371Z" fill="#9AC22A"/>
<path d="M66.0088 34.6892V33.2951C66.0088 32.918 66.1377 32.6005 66.3908 32.3376C66.6439 32.0746 66.9496 31.9456 67.3078 31.9456H68.3871L70.9898 20.9363C71.8876 17.1309 74.9202 15.2258 80.0875 15.2158H87.6474C88.0104 15.2158 88.3208 15.3448 88.5739 15.6078C88.8318 15.8707 88.9608 16.1883 88.9608 16.5653V34.719C88.9608 35.0961 88.8318 35.4136 88.5787 35.6667C88.3208 35.9246 88.0104 36.0536 87.6474 36.0536H67.3221C66.9592 36.0536 66.6487 35.9197 66.3908 35.6567C66.1377 35.3888 66.0088 35.0663 66.0088 34.6892ZM73.817 31.9456H83.6884V19.3239H79.5288C78.6596 19.3239 77.9337 19.5769 77.351 20.0829C76.7732 20.589 76.3768 21.2935 76.1667 22.1965L73.817 31.9456Z" fill="#02374C"/>
<path d="M92.958 34.6595V16.5951C92.958 16.1982 93.0822 15.8707 93.3353 15.6078C93.5884 15.3448 93.9036 15.2158 94.2856 15.2158H96.9171C97.28 15.2158 97.5904 15.3498 97.8435 15.6227C98.1014 15.8955 98.2304 16.218 98.2304 16.5951V22.3007H103.99C106.191 22.3007 108.011 22.906 109.453 24.1215C110.891 25.337 111.612 27.0239 111.612 29.1821C111.612 31.3453 110.891 33.0272 109.444 34.2378C108.001 35.4483 106.182 36.0536 103.99 36.0536H94.2188C93.8702 36.0536 93.5741 35.9147 93.3305 35.6418C93.0822 35.364 92.958 35.0365 92.958 34.6595ZM98.2304 31.9456H103.99C105.556 31.9456 106.339 31.0228 106.339 29.1772C106.339 27.3315 105.556 26.4087 103.99 26.4087H98.2304V31.9456ZM114.42 34.719V16.5951C114.42 16.218 114.549 15.8955 114.807 15.6227C115.065 15.3498 115.375 15.2158 115.733 15.2158H118.365C118.742 15.2158 119.057 15.3498 119.31 15.6227C119.563 15.8955 119.692 16.218 119.692 16.5951V34.6892C119.692 35.0663 119.559 35.3888 119.296 35.6518C119.033 35.9197 118.723 36.0536 118.365 36.0536H115.733C115.375 36.0536 115.065 35.9246 114.807 35.6667C114.549 35.4136 114.42 35.0961 114.42 34.719Z" fill="#02374C"/>
<path d="M123.751 34.6892V16.5951C123.751 16.218 123.88 15.8955 124.143 15.6227C124.405 15.3498 124.716 15.2158 125.079 15.2158H127.71C128.073 15.2158 128.383 15.3448 128.636 15.6078C128.894 15.8707 129.023 16.1883 129.023 16.5653V31.9456H135.155V16.5653C135.155 16.1883 135.284 15.8707 135.547 15.6078C135.81 15.3448 136.12 15.2158 136.483 15.2158H139.114C139.477 15.2158 139.788 15.3498 140.041 15.6227C140.299 15.8955 140.428 16.218 140.428 16.5951V31.9456H146.56V16.5653C146.56 16.1883 146.689 15.8707 146.946 15.6078C147.204 15.3448 147.515 15.2158 147.878 15.2158H150.514C150.877 15.2158 151.187 15.3498 151.445 15.6227C151.703 15.8955 151.832 16.218 151.832 16.5951V34.6892C151.832 35.0663 151.703 35.3888 151.445 35.6518C151.192 35.9197 150.882 36.0536 150.519 36.0536H125.079C124.716 36.0536 124.405 35.9197 124.143 35.6518C123.88 35.3888 123.751 35.0663 123.751 34.6892Z" fill="#02374C"/>
<path d="M155.835 34.6892V16.5951C155.835 16.1982 155.964 15.8707 156.227 15.6078C156.484 15.3448 156.814 15.2158 157.206 15.2158H159.751C160.124 15.2158 160.444 15.3448 160.711 15.6078C160.974 15.8707 161.107 16.1883 161.107 16.5653V31.1121L169.14 16.5951C169.355 16.218 169.651 15.8955 170.028 15.6227C170.406 15.3498 170.754 15.2158 171.074 15.2158H175.239C175.606 15.2158 175.917 15.3498 176.17 15.6227C176.423 15.8955 176.552 16.218 176.552 16.5951V34.6892C176.552 35.0663 176.418 35.3888 176.146 35.6518C175.879 35.9197 175.554 36.0536 175.181 36.0536H172.636C172.263 36.0536 171.943 35.9197 171.676 35.6518C171.413 35.3888 171.28 35.0663 171.28 34.6892V21.2042L163.911 34.6892C163.696 35.0663 163.39 35.3888 162.994 35.6518C162.597 35.9197 162.215 36.0536 161.848 36.0536H157.177C156.809 36.0536 156.494 35.9197 156.231 35.6518C155.969 35.3888 155.835 35.0663 155.835 34.6892Z" fill="#02374C"/>
<path d="M178.515 17.9595V16.5951C178.515 16.1982 178.639 15.8707 178.892 15.6078C179.145 15.3448 179.46 15.2158 179.842 15.2158H197.589C197.971 15.2158 198.286 15.3448 198.539 15.6078C198.792 15.8707 198.916 16.1982 198.916 16.5951V17.9595C198.916 18.3564 198.792 18.6838 198.539 18.9369C198.286 19.1948 197.971 19.3239 197.589 19.3239H191.352V34.7141C191.352 35.0961 191.223 35.4136 190.965 35.6667C190.712 35.9246 190.401 36.0536 190.038 36.0536H187.393C187.03 36.0536 186.719 35.9246 186.466 35.6667C186.208 35.4136 186.079 35.0961 186.079 34.7141V19.3239H179.842C179.46 19.3239 179.145 19.1948 178.892 18.9369C178.639 18.6838 178.515 18.3564 178.515 17.9595Z" fill="#02374C"/>
<path d="M201.209 34.6595V16.5653C201.209 16.1883 201.338 15.8707 201.601 15.6078C201.863 15.3448 202.174 15.2158 202.537 15.2158H218.659C219.027 15.2158 219.337 15.3498 219.591 15.6227C219.848 15.8955 219.977 16.218 219.977 16.5951V17.9595C219.977 18.3365 219.848 18.659 219.591 18.9269C219.337 19.1899 219.027 19.3239 218.659 19.3239H206.481V23.5509H216.974C217.337 23.5509 217.647 23.6849 217.9 23.9528C218.158 24.2207 218.287 24.5432 218.287 24.9203V26.2896C218.287 26.6667 218.158 26.9892 217.9 27.2571C217.647 27.525 217.337 27.659 216.974 27.659H206.481V31.9456H218.635C218.998 31.9456 219.304 32.0746 219.548 32.3376C219.796 32.6005 219.92 32.918 219.92 33.2951V34.6892C219.92 35.0663 219.791 35.3888 219.529 35.6567C219.266 35.9197 218.955 36.0536 218.592 36.0536H202.537C202.174 36.0536 201.863 35.9197 201.601 35.6518C201.338 35.3888 201.209 35.0564 201.209 34.6595Z" fill="#02374C"/>
<path d="M84.3673 47.504L82.8854 48.639C82.0703 47.5779 81.0896 46.7734 79.9433 46.2255C78.8014 45.6776 77.5461 45.4036 76.1731 45.4036C74.6781 45.4036 73.292 45.7645 72.015 46.4821C70.7379 47.1996 69.7529 48.165 69.0511 49.3739C68.3494 50.5828 67.9963 51.9483 67.9963 53.4573C67.9963 55.7447 68.7809 57.6537 70.35 59.1801C71.9191 60.7108 73.8979 61.4762 76.2908 61.4762C78.919 61.4762 81.1158 60.4499 82.8854 58.3973L84.3673 59.5193C83.4302 60.7065 82.2621 61.6284 80.863 62.2764C79.4639 62.9243 77.8991 63.2505 76.1731 63.2505C72.8867 63.2505 70.2933 62.1589 68.3973 59.9759C66.8064 58.1364 66.0088 55.9099 66.0088 53.3051C66.0088 50.5654 66.9721 48.2563 68.8986 46.3864C70.8294 44.5121 73.2441 43.5771 76.1469 43.5771C77.8991 43.5771 79.4813 43.9207 80.8935 44.6078C82.3057 45.2992 83.4651 46.2646 84.3673 47.504Z" fill="#02374C"/>
<path d="M88.1846 44.0479H91.885C93.3757 44.0479 94.522 44.2218 95.3196 44.574C96.1216 44.9263 96.7536 45.4698 97.2156 46.2004C97.682 46.9266 97.913 47.7398 97.913 48.627C97.913 49.4619 97.7082 50.2186 97.3028 50.9013C96.8974 51.5841 96.3003 52.1363 95.5158 52.5625C96.4921 52.893 97.2417 53.28 97.7648 53.7279C98.2922 54.1715 98.6976 54.7107 98.9896 55.3456C99.2816 55.9762 99.4298 56.6633 99.4298 57.4026C99.4298 58.9072 98.8806 60.1813 97.7779 61.2207C96.6751 62.26 95.1976 62.7818 93.3408 62.7818H88.1846V44.0479ZM90.0152 45.8743V51.8754H91.0918C92.3993 51.8754 93.3626 51.7537 93.9772 51.5145C94.5917 51.271 95.0799 50.8883 95.4373 50.3664C95.7991 49.8446 95.9778 49.2619 95.9778 48.627C95.9778 47.7703 95.677 47.0962 95.0755 46.6049C94.4697 46.1178 93.5108 45.8743 92.1945 45.8743H90.0152ZM90.0152 53.754V60.9554H92.347C93.72 60.9554 94.7268 60.8206 95.3676 60.5553C96.0083 60.2857 96.5226 59.8639 96.9105 59.2942C97.2984 58.7245 97.4946 58.107 97.4946 57.446C97.4946 56.6111 97.22 55.8805 96.6751 55.2587C96.1303 54.6411 95.3807 54.215 94.4261 53.9845C93.7854 53.8323 92.6696 53.754 91.0787 53.754H90.0152Z" fill="#02374C"/>
<path d="M112.102 43.5771C114.944 43.5771 117.324 44.5252 119.237 46.4168C121.151 48.3085 122.11 50.6394 122.11 53.4051C122.11 56.1491 121.155 58.4756 119.246 60.3847C117.333 62.2937 115.005 63.2505 112.255 63.2505C109.474 63.2505 107.125 62.2981 105.211 60.3977C103.298 58.4974 102.339 56.1969 102.339 53.4964C102.339 51.6961 102.775 50.0306 103.646 48.4911C104.518 46.956 105.708 45.7515 107.216 44.8817C108.72 44.012 110.35 43.5771 112.102 43.5771ZM112.185 45.4036C110.799 45.4036 109.483 45.7645 108.236 46.4864C106.994 47.2083 106.022 48.178 105.32 49.4C104.623 50.6263 104.274 51.9874 104.274 53.4921C104.274 55.7142 105.046 57.5928 106.593 59.1236C108.14 60.6586 110.006 61.424 112.185 61.424C113.645 61.424 114.992 61.0718 116.23 60.3673C117.472 59.6628 118.44 58.6974 119.133 57.4754C119.826 56.2535 120.174 54.8967 120.174 53.4007C120.174 51.9135 119.826 50.5698 119.133 49.3695C118.44 48.1693 117.459 47.2083 116.199 46.4864C114.94 45.7645 113.602 45.4036 112.185 45.4036Z" fill="#02374C"/>
<path d="M125.878 62.7818V44.0479H135.293V45.8743H127.761V51.8754H128.637C130.969 51.8754 132.664 52.0798 133.719 52.4929C134.778 52.9061 135.606 53.554 136.212 54.4411C136.818 55.3282 137.123 56.3197 137.123 57.4069C137.123 58.8333 136.587 60.0857 135.515 61.1641C134.443 62.2426 132.948 62.7818 131.034 62.7818H125.878ZM127.761 53.754V60.9554H130.058C131.422 60.9554 132.42 60.8206 133.052 60.5553C133.689 60.2857 134.194 59.8726 134.569 59.3159C134.948 58.755 135.136 58.1331 135.136 57.446C135.136 56.5763 134.87 55.8414 134.338 55.2369C133.802 54.6325 133.139 54.2324 132.342 54.041C131.549 53.8497 130.367 53.754 128.803 53.754H127.761Z" fill="#02374C"/>
<path d="M149.811 43.5771C152.653 43.5771 155.033 44.5252 156.946 46.4168C158.86 48.3085 159.819 50.6394 159.819 53.4051C159.819 56.1491 158.864 58.4756 156.955 60.3847C155.041 62.2937 152.714 63.2505 149.964 63.2505C147.183 63.2505 144.834 62.2981 142.92 60.3977C141.007 58.4974 140.048 56.1969 140.048 53.4964C140.048 51.6961 140.484 50.0306 141.355 48.4911C142.227 46.956 143.417 45.7515 144.925 44.8817C146.429 44.012 148.059 43.5771 149.811 43.5771ZM149.894 45.4036C148.508 45.4036 147.192 45.7645 145.945 46.4864C144.703 47.2083 143.731 48.178 143.029 49.4C142.332 50.6263 141.983 51.9874 141.983 53.4921C141.983 55.7142 142.755 57.5928 144.302 59.1236C145.849 60.6586 147.715 61.424 149.894 61.424C151.354 61.424 152.701 61.0718 153.939 60.3673C155.181 59.6628 156.149 58.6974 156.842 57.4754C157.535 56.2535 157.883 54.8967 157.883 53.4007C157.883 51.9135 157.535 50.5698 156.842 49.3695C156.149 48.1693 155.168 47.2083 153.908 46.4864C152.649 45.7645 151.311 45.4036 149.894 45.4036Z" fill="#02374C"/>
<path d="M163.59 65.5737H161.707V61.0337H163.211L170.577 44.0479H171.226L179.006 61.0337H180.458V65.5737H178.575V62.7818H163.59V65.5737ZM165.329 61.0337H176.783L170.912 47.9616L165.329 61.0337Z" fill="#02374C"/>
<path d="M183.124 44.0479H185.007V51.9015H194.578V44.0479H196.461V62.7818H194.578V53.7279H185.007V62.7818H183.124V44.0479Z" fill="#02374C"/>
<path d="M209.969 43.5771C212.811 43.5771 215.191 44.5252 217.104 46.4168C219.018 48.3085 219.977 50.6394 219.977 53.4051C219.977 56.1491 219.022 58.4756 217.113 60.3847C215.2 62.2937 212.872 63.2505 210.122 63.2505C207.341 63.2505 204.992 62.2981 203.078 60.3977C201.165 58.4974 200.206 56.1969 200.206 53.4964C200.206 51.6961 200.642 50.0306 201.514 48.4911C202.385 46.956 203.575 45.7515 205.083 44.8817C206.587 44.012 208.217 43.5771 209.969 43.5771ZM210.052 45.4036C208.666 45.4036 207.35 45.7645 206.103 46.4864C204.861 47.2083 203.889 48.178 203.187 49.4C202.49 50.6263 202.141 51.9874 202.141 53.4921C202.141 55.7142 202.913 57.5928 204.46 59.1236C206.007 60.6586 207.873 61.424 210.052 61.424C211.512 61.424 212.859 61.0718 214.097 60.3673C215.339 59.6628 216.307 58.6974 217 57.4754C217.693 56.2535 218.042 54.8967 218.042 53.4007C218.042 51.9135 217.693 50.5698 217 49.3695C216.307 48.1693 215.326 47.2083 214.066 46.4864C212.807 45.7645 211.469 45.4036 210.052 45.4036Z" fill="#02374C"/>
</svg>
