<svg width="32" height="32" viewBox="0 0 32 32" fill="none" xmlns="http://www.w3.org/2000/svg">
<path d="M19.4588 2.92625C19.5013 2.76761 19.5745 2.61889 19.6745 2.48858C19.7744 2.35827 19.899 2.24892 20.0412 2.16679C20.1834 2.08467 20.3404 2.03136 20.5032 2.00993C20.666 1.98849 20.8315 1.99935 20.9901 2.04187C23.3074 2.64648 25.4216 3.85788 27.115 5.5513C28.8085 7.24473 30.0199 9.35896 30.6245 11.6762C30.667 11.8349 30.6778 12.0003 30.6564 12.1631C30.635 12.3259 30.5817 12.4829 30.4995 12.6251C30.4174 12.7673 30.3081 12.8919 30.1778 12.9919C30.0475 13.0918 29.8987 13.1651 29.7401 13.2075C29.6345 13.2352 29.5258 13.2494 29.4167 13.2497C29.1412 13.2497 28.8735 13.1587 28.655 12.9908C28.4366 12.823 28.2798 12.5877 28.2088 12.3216C27.7157 10.4299 26.7271 8.70392 25.3447 7.32159C23.9624 5.93927 22.2365 4.9506 20.3448 4.4575C20.186 4.41523 20.0371 4.34208 19.9066 4.24222C19.7761 4.14237 19.6666 4.01777 19.5844 3.87555C19.5021 3.73333 19.4486 3.57628 19.4271 3.41339C19.4056 3.2505 19.4163 3.08496 19.4588 2.92625ZM19.0948 9.4575C21.2495 10.0325 22.6338 11.4169 23.2088 13.5716C23.2798 13.8377 23.4366 14.073 23.655 14.2408C23.8735 14.4087 24.1412 14.4997 24.4167 14.4997C24.5258 14.4994 24.6345 14.4852 24.7401 14.4575C24.8987 14.4151 25.0475 14.3418 25.1778 14.2419C25.3081 14.1419 25.4174 14.0173 25.4995 13.8751C25.5817 13.7329 25.635 13.5759 25.6564 13.4131C25.6778 13.2503 25.667 13.0849 25.6245 12.9262C24.8245 9.9325 22.7338 7.84187 19.7401 7.04187C19.5815 6.9995 19.4161 6.98878 19.2533 7.01033C19.0906 7.03189 18.9337 7.08528 18.7915 7.16748C18.6494 7.24967 18.5249 7.35906 18.425 7.48938C18.3252 7.6197 18.252 7.76841 18.2096 7.92703C18.1673 8.08564 18.1565 8.25104 18.1781 8.4138C18.1996 8.57655 18.253 8.73347 18.3352 8.87558C18.4174 9.0177 18.5268 9.14224 18.6571 9.24208C18.7875 9.34193 18.9362 9.41512 19.0948 9.4575ZM31.8979 24.3559C31.6193 26.4732 30.5795 28.4166 28.9728 29.8232C27.366 31.2299 25.3021 32.0035 23.1667 31.9997C10.7604 31.9997 0.666655 21.9059 0.666655 9.49968C0.662827 7.3642 1.43648 5.30034 2.84311 3.69358C4.24975 2.08682 6.19317 1.04704 8.31041 0.768434C8.8458 0.70306 9.38798 0.812593 9.85601 1.08068C10.324 1.34877 10.6928 1.76103 10.9073 2.25593L14.2073 9.62312V9.64187C14.3715 10.0207 14.4393 10.4343 14.4047 10.8457C14.37 11.2572 14.234 11.6536 14.0088 11.9997C13.9807 12.0419 13.951 12.0809 13.9198 12.12L10.6667 15.9762C11.837 18.3544 14.3245 20.82 16.7338 21.9934L20.537 18.7575C20.5743 18.7261 20.6134 18.6969 20.6542 18.67C20.9999 18.4394 21.3977 18.2986 21.8116 18.2604C22.2255 18.2222 22.6423 18.2878 23.0245 18.4512L23.0448 18.4606L30.4057 21.7591C30.9015 21.9728 31.3148 22.3412 31.5837 22.8093C31.8527 23.2774 31.9629 23.82 31.8979 24.3559ZM29.4167 24.0434C29.4167 24.0434 29.4057 24.0434 29.3995 24.0434L22.0557 20.7544L18.251 23.9903C18.2141 24.0216 18.1755 24.0508 18.1354 24.0778C17.7757 24.3178 17.3598 24.4604 16.9284 24.4916C16.4971 24.5228 16.065 24.4416 15.6745 24.2559C12.7479 22.8419 9.83072 19.9466 8.41509 17.0512C8.22764 16.6635 8.14352 16.2339 8.1709 15.8042C8.19827 15.3744 8.33621 14.9589 8.57134 14.5981C8.59785 14.5558 8.62763 14.5155 8.66041 14.4778L11.9167 10.6169L8.63541 3.27312C8.63479 3.26689 8.63479 3.26061 8.63541 3.25437C7.12018 3.45203 5.72896 4.19525 4.7223 5.34486C3.71563 6.49447 3.16256 7.97162 3.16666 9.49968C3.17245 14.8022 5.28144 19.886 9.03091 23.6354C12.7804 27.3849 17.8641 29.4939 23.1667 29.4997C24.6938 29.5049 26.1705 28.9538 27.3208 27.9493C28.4711 26.9448 29.2161 25.5558 29.4167 24.0419V24.0434Z" fill="white"/>
</svg>
