<svg width="958" height="839" viewBox="0 0 958 839" fill="none" xmlns="http://www.w3.org/2000/svg">
<path d="M552.216 333.06C635.482 306.079 530.429 122.216 444.233 153.048C362.008 182.459 468.521 360.182 552.216 333.06Z" fill="#CCE094"/>
<path d="M744.456 254.7C744.456 254.696 744.457 254.694 744.457 254.69C744.457 254.674 744.456 254.659 744.456 254.644C744.456 254.406 744.449 254.172 744.438 253.94C744.433 253.815 744.426 253.691 744.418 253.566C744.418 253.551 744.417 253.535 744.416 253.52C743.825 244.262 736.14 236.928 726.73 236.915C722.181 236.91 718.03 238.618 714.885 241.428L714.884 241.427L692.858 259.027C692.498 259.315 692.136 259.604 691.773 259.895L691.7 259.954C660.564 284.952 618.788 326.891 569.409 351.035C517.162 376.58 413.942 315.058 325.656 249.248C275.688 210.454 233.074 172.904 211.278 153.51C202.402 145.611 188.835 146.284 180.781 155.02C171.367 165.232 171.804 181.094 181.784 190.754C206.079 214.27 232.556 238.474 259.55 263.195C309.741 309.658 368.206 369.711 406.701 418.171C479.813 510.212 456.658 561.526 437.116 591.749C429.601 603.368 421.557 615.87 414.501 626.858C402.305 645.848 410.048 671.223 430.749 680.216C495.405 708.306 569.476 686.363 615.788 620.647C670.778 542.616 627.992 486.48 630.288 436.342C632.374 390.786 729.116 280.038 739.409 267.199C739.642 266.908 739.862 266.62 740.077 266.334C742.661 263.375 744.28 259.551 744.438 255.35C744.449 255.131 744.456 254.915 744.456 254.7Z" fill="#CCE094"/>
</svg>